<?xml version="1.0" standalone="no"?>
<!DOCTYPE svg PUBLIC "-//W3C//DTD SVG 20010904//EN"
 "http://www.w3.org/TR/2001/REC-SVG-20010904/DTD/svg10.dtd">
<svg version="1.0" xmlns="http://www.w3.org/2000/svg"
 width="1574.000000pt" height="530.000000pt" viewBox="0 0 1574.000000 530.000000"
 preserveAspectRatio="xMidYMid meet">

<g transform="translate(0.000000,530.000000) scale(0.100000,-0.100000)"
fill="#D90931" stroke="none">
<path d="M1818 5289 c-184 -23 -442 -108 -638 -211 -52 -27 -153 -88 -225
-135 -108 -72 -157 -113 -290 -247 -227 -227 -383 -441 -497 -683 -176 -373
-218 -811 -101 -1052 32 -66 130 -165 200 -204 64 -34 189 -67 258 -67 l52 0
7 -82 c16 -196 62 -306 175 -419 130 -130 265 -176 490 -166 206 8 362 58 568
179 398 236 750 644 1029 1195 119 234 168 416 181 668 6 133 -7 287 -36 408
-10 42 -16 77 -13 77 2 0 45 -21 94 -47 193 -102 311 -238 363 -418 24 -81 16
-262 -14 -360 -42 -133 -135 -302 -277 -500 -161 -226 -398 -582 -477 -716
-84 -143 -154 -294 -176 -381 -79 -308 -24 -580 130 -648 47 -21 69 -24 169
-24 98 0 126 4 193 28 205 70 413 199 656 404 l51 44 -159 -312 -159 -313
-114 -69 c-493 -301 -921 -679 -1017 -899 -40 -91 -36 -194 10 -235 31 -28
111 -26 172 6 119 60 544 435 769 678 215 231 339 386 433 540 21 34 42 62 46
62 5 0 51 20 102 44 106 51 212 119 312 199 39 31 73 57 76 57 3 0 9 -25 12
-56 3 -30 14 -72 24 -92 39 -75 156 -104 263 -63 108 41 338 237 451 385 273
354 465 593 473 586 5 -5 6 -15 3 -22 -3 -7 -76 -112 -162 -233 -249 -349
-332 -547 -281 -669 21 -51 63 -79 111 -73 86 9 153 52 281 182 l122 123 4
-87 c7 -150 64 -217 183 -215 149 2 272 98 364 284 43 89 51 113 51 162 l0 57
36 -24 c52 -35 117 -34 172 2 59 40 93 84 238 308 191 296 253 369 356 421
129 65 107 -43 -43 -221 -161 -190 -321 -420 -459 -660 -101 -174 -135 -254
-131 -307 5 -82 242 135 420 384 129 182 318 421 416 526 79 85 237 214 319
261 70 41 120 46 124 14 5 -34 -27 -86 -174 -283 -247 -330 -448 -642 -521
-810 -49 -112 -43 -136 26 -100 81 41 229 200 365 393 110 156 485 582 612
694 107 95 172 134 219 131 33 -3 41 -8 49 -30 22 -61 -115 -262 -318 -468
-128 -130 -188 -204 -225 -279 -121 -238 -64 -457 119 -456 42 1 67 7 103 28
l47 28 -99 -154 c-410 -640 -681 -1113 -681 -1189 0 -41 33 -36 76 10 35 37
729 1069 1024 1522 84 129 181 272 216 316 136 175 443 495 566 590 175 136
289 100 193 -61 -47 -78 -116 -160 -275 -330 -220 -234 -299 -374 -308 -541
-5 -107 7 -138 70 -184 94 -68 213 -27 364 126 l91 93 6 -55 c14 -134 112
-219 231 -200 74 12 193 84 286 173 l87 83 6 -65 c22 -236 186 -257 403 -53
l81 78 5 -45 c3 -24 14 -61 25 -82 39 -76 155 -105 263 -64 113 43 342 241
465 402 82 108 432 557 446 573 5 5 11 3 15 -7 4 -10 -36 -74 -117 -189 -192
-269 -209 -296 -265 -413 -56 -116 -73 -173 -74 -243 0 -92 54 -157 125 -149
87 9 153 52 283 183 l122 124 0 -36 c0 -66 32 -146 76 -190 51 -51 119 -75
213 -75 110 0 175 37 327 183 l91 88 5 -78 c8 -138 66 -202 181 -202 30 0 74
7 97 15 84 30 201 129 311 264 l36 44 -1 -89 c-1 -77 3 -96 24 -139 32 -63 89
-95 168 -95 77 0 123 28 238 145 l102 103 12 -62 c10 -52 18 -67 58 -106 94
-90 201 -92 338 -5 82 52 245 219 338 348 43 59 81 107 85 107 4 0 12 -5 18
-11 8 -8 4 -29 -15 -78 -23 -58 -26 -81 -27 -186 0 -146 15 -187 85 -222 92
-48 202 -23 332 74 162 122 242 207 452 476 334 431 335 432 342 413 4 -10
-38 -77 -127 -203 -184 -259 -196 -278 -240 -365 -105 -209 -115 -342 -30
-409 83 -66 269 52 465 296 83 101 226 307 226 324 0 10 -48 28 -54 20 -1 -2
-39 -58 -84 -124 -107 -158 -192 -264 -287 -354 -90 -85 -154 -119 -193 -102
-22 11 -24 16 -20 62 7 68 91 236 245 489 66 107 171 287 235 400 l117 205
-48 6 c-26 4 -65 4 -87 0 -37 -6 -50 -21 -346 -401 -175 -225 -349 -438 -405
-496 -140 -143 -305 -254 -401 -270 -34 -5 -44 -2 -73 24 -30 27 -34 35 -37
98 -3 53 1 82 17 125 26 70 49 91 101 95 116 8 171 133 80 182 -31 16 -113 9
-146 -13 -32 -21 -34 -20 -34 22 0 44 36 109 100 180 61 67 84 115 76 161 -4
27 7 74 44 188 69 215 91 336 97 534 6 170 -4 290 -34 408 -9 34 -13 65 -10
69 4 3 73 0 154 -7 81 -7 225 -14 318 -17 209 -6 301 8 422 66 134 65 206 145
265 298 l30 77 -34 28 c-18 15 -36 28 -39 28 -3 0 -25 -29 -48 -64 -71 -110
-185 -190 -357 -252 -152 -54 -294 -75 -529 -77 l-200 -2 -45 28 c-48 29 -117
36 -138 15 -17 -17 -15 -59 3 -86 9 -12 35 -33 59 -47 36 -21 45 -34 64 -87
56 -161 67 -377 31 -622 -11 -77 -22 -143 -25 -147 -3 -5 -18 6 -34 24 -26 29
-34 32 -87 32 -46 0 -73 -7 -127 -34 -101 -50 -253 -169 -409 -320 -204 -199
-318 -350 -383 -511 -37 -92 -245 -338 -330 -390 -45 -28 -85 -23 -102 13 -33
70 54 258 294 632 200 311 304 491 304 525 0 52 -51 67 -87 27 -12 -12 -74
-94 -138 -182 -408 -556 -798 -987 -922 -1017 -34 -9 -63 18 -63 58 0 107 96
285 423 790 176 272 187 292 187 332 0 44 -21 57 -59 37 -45 -23 -504 -605
-659 -837 -117 -174 -393 -388 -501 -388 -49 0 -101 55 -101 107 0 84 76 260
158 368 l38 50 79 8 c100 9 170 29 254 72 97 48 154 98 236 206 83 110 115
184 122 281 5 64 4 68 -25 97 -25 25 -39 31 -75 31 -50 0 -151 -30 -213 -63
-193 -103 -518 -441 -669 -696 -65 -109 -195 -271 -287 -356 -107 -100 -181
-126 -208 -75 -23 42 52 209 207 464 120 197 165 274 286 486 l105 185 -46 6
c-26 3 -64 4 -85 1 -45 -6 -23 19 -382 -442 -320 -412 -353 -450 -471 -549
-157 -130 -292 -197 -352 -172 -53 22 -76 92 -61 180 17 93 89 181 129 156 6
-4 30 5 54 19 109 64 60 190 -66 173 -81 -11 -133 -77 -170 -217 -23 -85 -23
-85 -118 -181 -102 -103 -169 -145 -214 -133 -16 4 -28 15 -32 28 -13 55 72
233 254 531 51 83 150 251 220 375 l128 225 -50 7 c-28 4 -54 4 -57 0 -3 -4
-43 -54 -89 -112 -46 -58 -86 -109 -90 -113 -4 -5 -5 31 -3 80 5 81 3 91 -19
123 -28 41 -61 60 -104 60 -48 0 -153 -35 -209 -71 -170 -107 -471 -420 -624
-647 -68 -102 -190 -259 -270 -350 -64 -72 -164 -152 -191 -152 -27 0 -42 26
-42 68 1 86 81 227 241 426 137 171 196 256 248 361 96 192 104 309 24 362
-43 29 -110 30 -171 2 -76 -34 -229 -157 -363 -290 l-128 -128 65 92 c168 237
289 450 284 501 -3 26 -8 32 -32 34 -25 3 -39 -6 -95 -66 -84 -88 -154 -188
-462 -657 -265 -405 -378 -548 -507 -647 -76 -58 -105 -67 -132 -43 -64 58 14
220 230 481 210 253 348 528 326 648 -10 51 -55 88 -116 94 -44 4 -61 0 -123
-31 -116 -58 -274 -196 -421 -367 -22 -25 -36 -38 -33 -30 3 8 25 60 48 115
33 80 42 115 47 181 4 75 3 82 -19 103 -21 20 -33 22 -84 19 -40 -2 -80 -13
-115 -31 -82 -40 -223 -150 -327 -254 l-91 -92 33 73 c44 94 59 155 53 218 -6
59 -26 82 -83 92 -136 26 -330 -168 -572 -567 -116 -194 -189 -245 -256 -183
-33 30 -41 63 -34 135 5 65 42 146 93 205 43 51 47 102 9 112 -39 10 -67 -2
-119 -47 -56 -49 -80 -93 -96 -176 -11 -53 -10 -72 5 -134 24 -97 22 -205 -4
-263 -25 -57 -98 -170 -141 -219 -64 -73 -166 -101 -210 -57 -27 27 -27 111 1
192 46 134 108 244 391 702 81 131 148 247 148 257 0 26 -31 40 -58 26 -24
-13 -256 -278 -380 -435 -108 -136 -151 -200 -202 -302 -57 -115 -133 -215
-254 -336 -110 -110 -174 -147 -215 -125 -62 34 -1 179 241 576 60 99 160 270
223 380 l114 200 -48 6 c-26 4 -65 4 -87 0 -38 -6 -50 -20 -346 -401 -341
-439 -460 -570 -605 -667 -89 -60 -184 -103 -224 -103 -33 0 -89 62 -91 102
-4 98 12 153 62 207 31 34 45 42 62 38 14 -4 38 3 64 18 128 75 29 219 -110
161 -46 -19 -81 -69 -115 -161 -26 -72 -34 -83 -102 -142 -137 -119 -350 -265
-365 -250 -3 3 128 238 292 524 291 509 298 520 388 613 107 112 272 313 439
534 319 423 461 724 393 829 -26 39 -57 43 -112 17 -56 -28 -191 -160 -300
-295 -115 -143 -490 -652 -568 -773 -79 -122 -249 -419 -366 -638 -82 -155
-86 -161 -181 -247 -263 -239 -556 -433 -761 -501 -154 -52 -275 -42 -336 28
-125 142 51 552 479 1111 59 77 128 175 153 217 110 180 220 457 263 658 26
122 25 407 -1 505 -68 255 -244 447 -504 549 -52 21 -53 22 -87 104 -71 175
-196 333 -331 422 -76 50 -205 97 -339 125 -96 20 -331 27 -437 14z m452 -103
c147 -32 255 -91 371 -206 68 -67 136 -171 170 -259 l19 -51 -121 0 c-328 0
-744 -126 -1069 -324 -265 -162 -599 -461 -727 -651 -189 -283 -298 -560 -325
-835 l-12 -118 -35 5 c-129 18 -236 71 -319 157 -117 121 -148 231 -139 495 6
180 19 245 81 408 112 294 260 527 470 741 294 300 661 521 1019 613 192 49
455 60 617 25z m610 -623 c17 -61 38 -201 45 -298 13 -174 -32 -477 -101 -685
-102 -311 -347 -682 -644 -981 -369 -370 -710 -543 -1003 -510 -305 35 -480
218 -522 549 l-7 52 59 0 c91 0 206 34 339 100 166 82 261 154 455 349 212
213 326 378 365 531 17 67 14 80 -21 80 -20 0 -32 -18 -83 -125 -86 -178 -166
-290 -307 -431 -178 -178 -354 -303 -542 -384 -72 -31 -211 -70 -249 -70 -20
0 21 234 67 385 135 443 391 791 769 1047 253 171 543 303 824 374 151 38 256
52 408 53 l137 1 11 -37z m2300 -638 c41 -49 -136 -393 -349 -680 -156 -209
-431 -519 -411 -462 35 100 254 493 432 776 124 197 272 381 307 381 5 0 14
-7 21 -15z m9171 -1226 c15 -29 6 -94 -27 -189 -24 -73 -27 -76 -77 -100 -95
-46 -159 -170 -163 -318 l-2 -83 -73 -97 c-40 -53 -118 -143 -173 -200 -152
-156 -261 -220 -323 -190 -60 29 -47 123 39 291 52 101 264 426 375 575 73 98
267 293 313 315 51 24 97 22 111 -4z m-4296 -46 c23 -22 16 -142 -14 -233 -23
-73 -177 -320 -317 -508 -156 -210 -374 -402 -456 -402 -52 0 -61 56 -27 166
57 185 241 461 525 789 61 72 123 140 136 152 55 52 122 67 153 36z m2384 -2
c14 -25 -9 -103 -57 -196 -51 -99 -163 -209 -267 -262 -90 -46 -172 -73 -222
-73 l-34 0 62 82 c270 354 474 531 518 449z m-9199 -1579 c-58 -109 -145 -228
-285 -389 -373 -429 -599 -603 -661 -508 -21 32 -14 79 21 150 62 128 261 350
424 474 130 99 536 370 539 360 2 -5 -15 -44 -38 -87z"/>
<path d="M13289 3609 c-19 -19 -21 -30 -17 -94 7 -111 47 -168 155 -224 50
-25 140 -28 202 -6 99 34 196 138 247 263 28 69 29 82 7 82 -12 -1 -27 -20
-42 -53 -33 -69 -116 -152 -161 -160 -81 -16 -162 31 -225 129 -50 77 -124
105 -166 63z"/>
</g>
</svg>
